<mxfile host="Electron" modified="2023-08-14T03:57:49.935Z" agent="Mozilla/5.0 (Windows NT 10.0; Win64; x64) AppleWebKit/537.36 (KHTML, like Gecko) draw.io/21.6.8 Chrome/114.0.5735.289 Electron/25.5.0 Safari/537.36" etag="ck6fxYh1QCPAIHDvDpTE" version="21.6.8" type="device" pages="4">
  <diagram name="9.5" id="9fQmC0azeGJkRlDxP4tr">
    <mxGraphModel dx="880" dy="511" grid="1" gridSize="10" guides="1" tooltips="1" connect="1" arrows="1" fold="1" page="1" pageScale="1" pageWidth="1169" pageHeight="827" math="0" shadow="0">
      <root>
        <mxCell id="0" />
        <mxCell id="1" parent="0" />
        <mxCell id="pLC_7Q80fPU0TeDgMK2R-1" value="FArray" style="swimlane;fontStyle=1;align=center;verticalAlign=top;childLayout=stackLayout;horizontal=1;startSize=30;horizontalStack=0;resizeParent=1;resizeParentMax=0;resizeLast=0;collapsible=0;marginBottom=0;html=1;whiteSpace=wrap;" vertex="1" parent="1">
          <mxGeometry x="10" y="20" width="250" height="100" as="geometry" />
        </mxCell>
        <mxCell id="pLC_7Q80fPU0TeDgMK2R-2" value="" style="swimlane;fontStyle=1;align=center;verticalAlign=top;horizontal=1;startSize=0;collapsible=0;marginBottom=0;html=1;strokeColor=none;fillColor=none;" vertex="1" parent="pLC_7Q80fPU0TeDgMK2R-1">
          <mxGeometry y="30" width="250" height="70" as="geometry" />
        </mxCell>
        <mxCell id="pLC_7Q80fPU0TeDgMK2R-3" value="contents: T[0..k]" style="html=1;align=center;verticalAlign=middle;rotatable=0;whiteSpace=wrap;" vertex="1" parent="pLC_7Q80fPU0TeDgMK2R-2">
          <mxGeometry width="100" height="30" relative="1" as="geometry">
            <mxPoint x="20" y="20" as="offset" />
          </mxGeometry>
        </mxCell>
        <mxCell id="pLC_7Q80fPU0TeDgMK2R-4" value="&lt;b&gt;AddressList&lt;/b&gt;" style="fontStyle=0;html=1;whiteSpace=wrap;" vertex="1" parent="1">
          <mxGeometry x="75" y="180" width="120" height="40" as="geometry" />
        </mxCell>
        <mxCell id="pLC_7Q80fPU0TeDgMK2R-5" value="«bind»" style="endArrow=open;html=1;rounded=0;align=center;verticalAlign=bottom;dashed=1;endFill=0;labelBackgroundColor=none;entryX=0.5;entryY=1;entryDx=0;entryDy=0;exitX=0.5;exitY=0;exitDx=0;exitDy=0;endSize=12;" edge="1" parent="1" source="pLC_7Q80fPU0TeDgMK2R-4" target="pLC_7Q80fPU0TeDgMK2R-2">
          <mxGeometry y="-25" relative="1" as="geometry">
            <mxPoint x="160" y="250" as="sourcePoint" />
            <mxPoint x="320" y="250" as="targetPoint" />
            <mxPoint as="offset" />
          </mxGeometry>
        </mxCell>
        <mxCell id="pLC_7Q80fPU0TeDgMK2R-6" value="T -&amp;gt; Address, k -&amp;gt; 3" style="resizable=0;html=1;align=center;verticalAlign=top;labelBackgroundColor=none;" connectable="0" vertex="1" parent="pLC_7Q80fPU0TeDgMK2R-5">
          <mxGeometry relative="1" as="geometry">
            <mxPoint x="99" y="-22" as="offset" />
          </mxGeometry>
        </mxCell>
        <mxCell id="pLC_7Q80fPU0TeDgMK2R-7" value="&lt;font face=&quot;Verdana&quot;&gt;T, k : LiteralInteger = 10&lt;/font&gt;" style="shape=partialRectangle;html=1;top=1;align=left;dashed=1;" vertex="1" parent="1">
          <mxGeometry x="180" y="10" width="160" height="20" as="geometry" />
        </mxCell>
        <mxCell id="pLC_7Q80fPU0TeDgMK2R-8" value="&lt;b&gt;Figure 9.5 Template Class and Bound Class&lt;/b&gt;" style="text;html=1;align=left;verticalAlign=middle;resizable=0;points=[];autosize=1;strokeColor=none;fillColor=none;fontSize=11;fontFamily=Helvetica;fontColor=default;" vertex="1" parent="1">
          <mxGeometry x="10" y="220" width="250" height="30" as="geometry" />
        </mxCell>
      </root>
    </mxGraphModel>
  </diagram>
  <diagram id="jyHSIcVCSclpq50ubxA7" name="9.6">
    <mxGraphModel dx="880" dy="511" grid="1" gridSize="10" guides="1" tooltips="1" connect="1" arrows="1" fold="1" page="1" pageScale="1" pageWidth="1169" pageHeight="827" math="0" shadow="0">
      <root>
        <mxCell id="0" />
        <mxCell id="1" parent="0" />
        <mxCell id="LzF7xD6i8o9_xCuGufTJ-1" value="&lt;b&gt;FArray&amp;lt;T -&amp;gt; Point&amp;gt;&lt;/b&gt;" style="fontStyle=0;html=1;whiteSpace=wrap;" vertex="1" parent="1">
          <mxGeometry width="160" height="40" as="geometry" />
        </mxCell>
        <mxCell id="LzF7xD6i8o9_xCuGufTJ-2" value="&lt;b&gt;Figure 9.6 Anonymous Bound Class&lt;/b&gt;" style="text;html=1;align=left;verticalAlign=middle;resizable=0;points=[];autosize=1;strokeColor=none;fillColor=none;fontSize=11;fontFamily=Helvetica;fontColor=default;" vertex="1" parent="1">
          <mxGeometry y="40" width="210" height="30" as="geometry" />
        </mxCell>
      </root>
    </mxGraphModel>
  </diagram>
  <diagram id="8eOlaRk4fsmobbmhoTG7" name="9.7">
    <mxGraphModel dx="880" dy="511" grid="1" gridSize="10" guides="1" tooltips="1" connect="1" arrows="1" fold="1" page="1" pageScale="1" pageWidth="1169" pageHeight="827" math="0" shadow="0">
      <root>
        <mxCell id="0" />
        <mxCell id="1" parent="0" />
        <mxCell id="MqZ9fqYv_MGWBJdyYTPl-1" value="Car" style="swimlane;fontStyle=1;align=center;verticalAlign=top;childLayout=stackLayout;horizontal=1;startSize=30;horizontalStack=0;resizeParent=1;resizeParentMax=0;resizeLast=0;collapsible=0;marginBottom=0;html=1;whiteSpace=wrap;" vertex="1" parent="1">
          <mxGeometry x="10" y="40" width="320" height="160" as="geometry" />
        </mxCell>
        <mxCell id="MqZ9fqYv_MGWBJdyYTPl-2" value="" style="swimlane;fontStyle=1;align=center;verticalAlign=top;horizontal=1;startSize=0;collapsible=0;marginBottom=0;html=1;strokeColor=none;fillColor=none;" vertex="1" parent="MqZ9fqYv_MGWBJdyYTPl-1">
          <mxGeometry y="30" width="320" height="130" as="geometry" />
        </mxCell>
        <mxCell id="MqZ9fqYv_MGWBJdyYTPl-3" value="dw : Wheel [n + 1]" style="html=1;align=center;verticalAlign=middle;rotatable=0;whiteSpace=wrap;" vertex="1" parent="MqZ9fqYv_MGWBJdyYTPl-2">
          <mxGeometry x="190" y="55" width="110" height="30" as="geometry" />
        </mxCell>
        <mxCell id="MqZ9fqYv_MGWBJdyYTPl-4" style="edgeStyle=orthogonalEdgeStyle;rounded=0;orthogonalLoop=1;jettySize=auto;html=1;entryX=0;entryY=0.5;entryDx=0;entryDy=0;endArrow=none;endFill=0;" edge="1" parent="MqZ9fqYv_MGWBJdyYTPl-2" source="MqZ9fqYv_MGWBJdyYTPl-5" target="MqZ9fqYv_MGWBJdyYTPl-3">
          <mxGeometry relative="1" as="geometry" />
        </mxCell>
        <mxCell id="MqZ9fqYv_MGWBJdyYTPl-5" value="e : CarEngine" style="html=1;align=center;verticalAlign=middle;rotatable=0;whiteSpace=wrap;" vertex="1" parent="MqZ9fqYv_MGWBJdyYTPl-2">
          <mxGeometry x="20" y="55" width="100" height="30" as="geometry" />
        </mxCell>
        <mxCell id="MqZ9fqYv_MGWBJdyYTPl-6" value="CarEngine -&amp;gt; Engine,&lt;br&gt;n : LiteralInteger" style="shape=partialRectangle;html=1;top=1;align=left;dashed=1;" vertex="1" parent="1">
          <mxGeometry x="230" y="10" width="130" height="50" as="geometry" />
        </mxCell>
        <mxCell id="MqZ9fqYv_MGWBJdyYTPl-7" value="&lt;b&gt;Figure 9.7 Template Class with constrained Class parameter&lt;/b&gt;" style="text;html=1;align=left;verticalAlign=middle;resizable=0;points=[];autosize=1;strokeColor=none;fillColor=none;fontSize=11;fontFamily=Helvetica;fontColor=default;" vertex="1" parent="1">
          <mxGeometry x="10" y="200" width="340" height="30" as="geometry" />
        </mxCell>
      </root>
    </mxGraphModel>
  </diagram>
  <diagram name="9.8" id="m5WQZKdx3vLgHfg-ZZF0">
    <mxGraphModel dx="880" dy="511" grid="1" gridSize="10" guides="1" tooltips="1" connect="1" arrows="1" fold="1" page="1" pageScale="1" pageWidth="1169" pageHeight="827" math="0" shadow="0">
      <root>
        <mxCell id="0" />
        <mxCell id="1" parent="0" />
        <mxCell id="VSegiKtBcTcGBZa9hVQQ-1" value="DieselCar : Car&amp;lt;CarEngine -&amp;gt; DieselEngine, n -&amp;gt; 2&amp;gt;" style="fontStyle=0;html=1;whiteSpace=wrap;" parent="1" vertex="1">
          <mxGeometry width="320" height="40" as="geometry" />
        </mxCell>
        <mxCell id="pRtTbFbowDCBGv8_OK7L-1" value="&lt;b&gt;Figure 9.8 Bound Class&lt;/b&gt;" style="text;html=1;align=left;verticalAlign=middle;resizable=0;points=[];autosize=1;strokeColor=none;fillColor=none;fontSize=11;fontFamily=Helvetica;fontColor=default;" vertex="1" parent="1">
          <mxGeometry y="40" width="150" height="30" as="geometry" />
        </mxCell>
      </root>
    </mxGraphModel>
  </diagram>
</mxfile>
